<svg width="148" height="17" viewBox="0 0 148 17" fill="none" xmlns="http://www.w3.org/2000/svg">
<rect x="41.0361" y="3.75488" width="3.57667" height="3.48567" rx="1.74284" transform="rotate(-90 41.0361 3.75488)" fill="#2459FF"/>
<rect x="41.0342" y="9.37012" width="3.57667" height="3.48567" rx="1.74284" transform="rotate(-90 41.0342 9.37012)" fill="#2459FF"/>
<rect x="41.0342" y="15.4092" width="3.57667" height="3.48567" rx="1.71928" transform="rotate(-90 41.0342 15.4092)" fill="#2459FF"/>
<path d="M6.32599 3.16467H3.36068V13.7136C3.36068 14.3627 2.80716 14.6873 1.68034 14.6873C0.553524 14.6873 0 14.3627 0 13.7136V1.25775C0 0.588304 0.276762 0.243436 0.850055 0.243436H8.83661C9.40991 0.243436 9.68667 0.588304 9.68667 1.25775V13.7136C9.68667 14.3627 9.13314 14.6873 8.00633 14.6873C6.87951 14.6873 6.32599 14.3627 6.32599 13.7136V3.16467Z" fill="#2459FF"/>
<path d="M17.2604 0V0.0202861C18.664 0.0202861 19.8501 0.4463 20.8188 1.29833C21.7874 2.15035 22.2619 3.26611 22.2619 4.66586V13.7339C22.2619 14.383 21.7084 14.7076 20.5815 14.7076C19.4547 14.7076 18.9012 14.383 18.9012 13.7339V10.0418H15.6196V13.7339C15.6196 14.383 15.0661 14.7076 13.9393 14.7076C12.8124 14.7076 12.2589 14.383 12.2589 13.7339V4.66586C12.2589 3.26611 12.7334 2.13007 13.702 1.27804C14.6707 0.426013 15.8568 0 17.2604 0ZM15.6196 4.84844L15.5801 7.1408H18.8617V4.86873C18.8617 4.28042 18.7233 3.81384 18.4268 3.46897C18.1302 3.1241 17.7349 2.94152 17.2406 2.94152C16.7464 2.94152 16.351 3.10381 16.0545 3.44868C15.758 3.79355 15.6196 4.26014 15.6196 4.84844Z" fill="#2459FF"/>
<path d="M28.9979 3.16467H28.1874V6.85679H28.9979C30.0852 6.85679 30.6387 6.2482 30.6387 5.01073C30.6387 3.77326 30.0852 3.16467 28.9979 3.16467ZM24.8267 13.7136V1.29833C24.8267 0.628877 25.1035 0.284009 25.6768 0.284009H29.3538C30.7771 0.284009 31.9039 0.689736 32.7342 1.50119C33.5645 2.31264 33.9796 3.48925 33.9796 5.03102C33.9796 6.57278 33.5645 7.74939 32.7342 8.56085C31.9039 9.3723 30.7771 9.77803 29.3538 9.77803H28.1874V13.7136C28.1874 14.3627 27.6339 14.6873 26.5071 14.6873C25.3802 14.6873 24.8267 14.3627 24.8267 13.7136Z" fill="#2459FF"/>
<path d="M63.2396 11.6038H63.6548C64.2281 11.6038 64.5048 11.9487 64.5048 12.6181V16.0263C64.5048 16.6754 63.9513 17 62.8245 17C61.6977 17 61.1442 16.6754 61.1442 16.0263V14.5251H55.945V16.0263C55.945 16.6754 55.3915 17 54.2646 17C53.1378 17 52.5843 16.6754 52.5843 16.0263V12.6181C52.5843 11.9487 52.8611 11.6038 53.4344 11.6038H53.7704C54.2251 10.0823 54.4623 8.47972 54.4623 6.79596V4.40217C54.4623 3.04298 54.8182 2.00837 55.5101 1.29835C56.202 0.588328 57.1904 0.24346 58.4754 0.24346H62.3896C62.9629 0.24346 63.2396 0.588328 63.2396 1.25778V11.6038ZM59.8987 11.6038L59.879 3.1647H59.0684C58.6335 3.1647 58.3172 3.3067 58.1195 3.57042C57.9219 3.83415 57.823 4.28045 57.823 4.88904V6.81624C57.823 8.56087 57.6253 10.1635 57.23 11.6038H59.8987Z" fill="#2459FF"/>
<path d="M66.1617 10.1229V4.68617C66.1617 3.28642 66.6362 2.15038 67.6048 1.29835C68.5735 0.446324 69.7596 0.02031 71.1632 0.02031C72.5668 0.02031 73.7529 0.446324 74.7216 1.29835C75.6902 2.15038 76.1647 3.26613 76.1647 4.66589V10.1432C76.1647 11.543 75.6902 12.6587 74.7216 13.5107C73.7529 14.3628 72.5668 14.7888 71.1632 14.7888C69.7596 14.7888 68.5735 14.3628 67.6048 13.5107C66.6362 12.6587 66.1617 11.5227 66.1617 10.1229ZM72.804 9.98092L72.7645 4.90932C72.7645 4.32102 72.6261 3.85443 72.3295 3.50956C72.033 3.1647 71.6376 2.98212 71.1434 2.98212C70.6492 2.98212 70.2538 3.14441 69.9573 3.48928C69.6608 3.83415 69.5224 4.30073 69.5224 4.88904V10.0012C69.5224 10.5895 69.6805 11.0561 69.9771 11.401C70.2736 11.7458 70.669 11.9081 71.1632 11.9081C71.6574 11.9081 72.0528 11.7255 72.3493 11.3807C72.6458 11.0358 72.804 10.5692 72.804 9.98092Z" fill="#2459FF"/>
<path d="M78.5318 10.1229L78.4923 4.72675C78.4923 3.32699 78.9667 2.19095 79.9354 1.33892C80.9041 0.486897 82.0902 0.0608822 83.4938 0.0608822C84.8973 0.0608822 86.0835 0.486897 87.0521 1.33892C88.0208 2.19095 88.4952 3.3067 88.4952 4.70646V4.9499C88.4952 5.59906 87.9417 5.92364 86.8149 5.92364C85.6881 5.92364 85.1346 5.59906 85.1346 4.9499V4.88904C85.1346 4.30073 84.9962 3.83415 84.6997 3.48928C84.4031 3.14441 84.0078 2.96183 83.5135 2.96183C83.0193 2.96183 82.6239 3.12412 82.3274 3.46899C82.0309 3.81386 81.8925 4.28045 81.8925 4.86875V9.98092C81.8925 10.5692 82.0507 11.0358 82.3472 11.3807C82.6437 11.7255 83.0391 11.8878 83.5333 11.8878C84.0275 11.8878 84.4229 11.7053 84.7194 11.3604C85.016 11.0155 85.1741 10.5489 85.1741 9.96063V9.89977C85.1741 9.25061 85.7276 8.92603 86.8544 8.92603C87.9813 8.92603 88.5348 9.25061 88.5348 9.89977V10.1432C88.5348 11.543 88.0603 12.6587 87.0917 13.5107C86.123 14.3628 84.9369 14.7888 83.5333 14.7888C82.1297 14.7888 80.9436 14.3628 79.9749 13.5107C79.0063 12.6587 78.5318 11.5227 78.5318 10.1229Z" fill="#2459FF"/>
<path d="M93.2674 13.7136V3.1647H90.7172C90.1835 3.1647 89.9067 2.67782 89.9067 1.70408C89.9067 0.730333 90.1835 0.24346 90.7172 0.24346H99.1782C99.712 0.24346 99.9887 0.730333 99.9887 1.70408C99.9887 2.67782 99.712 3.1647 99.1782 3.1647H96.6281V13.7136C96.6281 14.3628 96.0745 14.6874 94.9477 14.6874C93.8209 14.6874 93.2674 14.3628 93.2674 13.7136Z" fill="#2459FF"/>
<path d="M106.608 2.39224e-05V0.02031C108.011 0.02031 109.198 0.446324 110.166 1.29835C111.135 2.15038 111.609 3.26613 111.609 4.66589V13.7339C111.609 14.3831 111.056 14.7076 109.929 14.7076C108.802 14.7076 108.249 14.3831 108.249 13.7339V10.0418H104.967V13.7339C104.967 14.3831 104.414 14.7076 103.287 14.7076C102.16 14.7076 101.606 14.3831 101.606 13.7339V4.66589C101.606 3.26613 102.081 2.13009 103.049 1.27806C104.018 0.426037 105.204 2.39224e-05 106.608 2.39224e-05ZM104.967 4.84846L104.928 7.14082H108.209V4.86875C108.209 4.28045 108.071 3.81386 107.774 3.46899C107.478 3.12412 107.082 2.94155 106.588 2.94155C106.094 2.94155 105.699 3.10384 105.402 3.44871C105.105 3.79357 104.967 4.26016 104.967 4.84846Z" fill="#2459FF"/>
<path d="M117.535 5.68021L119.255 5.70049C119.63 5.70049 119.907 5.57877 120.105 5.33534C120.302 5.0919 120.401 4.78761 120.401 4.42245C120.401 4.07758 120.302 3.77329 120.105 3.52985C119.907 3.28642 119.63 3.1647 119.255 3.1647H117.535V5.68021ZM117.535 11.6241L119.334 11.6038C119.769 11.6038 120.105 11.4618 120.342 11.1778C120.579 10.8938 120.698 10.5286 120.698 10.1026C120.698 9.67662 120.579 9.33175 120.342 9.04774C120.105 8.76373 119.769 8.62173 119.334 8.62173H117.535V11.6241ZM119.571 14.5251H114.985C114.411 14.5251 114.135 14.1802 114.135 13.5107V1.25778C114.135 0.588328 114.411 0.24346 114.985 0.24346H119.532C120.757 0.24346 121.746 0.608614 122.497 1.33892C123.248 2.06923 123.624 2.98212 123.624 4.09787C123.624 5.41648 123.09 6.41052 122.042 7.07997C123.288 7.72913 123.92 8.84488 123.92 10.4069C123.92 11.5227 123.545 12.4964 122.774 13.3079C122.003 14.1193 120.935 14.5251 119.571 14.5251Z" fill="#2459FF"/>
<path d="M132.354 13.7136V12.8819C132.354 11.0764 131.801 9.69691 130.694 8.72316L129.745 9.31147C129.488 9.47376 129.369 9.63605 129.369 9.81863V13.7136C129.369 14.3628 128.816 14.6874 127.689 14.6874C126.562 14.6874 126.008 14.3628 126.008 13.7136V1.05491C126.008 0.405751 126.562 0.0811696 127.689 0.0811696C128.816 0.0811696 129.369 0.405751 129.369 1.05491V5.92364C129.468 5.80192 129.606 5.68021 129.804 5.55849C131.247 4.62532 131.959 3.38785 131.959 1.84608V1.05491C131.959 0.405751 132.512 0.0811696 133.639 0.0811696C134.766 0.0811696 135.319 0.405751 135.319 1.05491V1.80551C135.319 3.85443 134.647 5.51792 133.323 6.79596C134.133 7.60741 134.726 8.47973 135.122 9.43318C135.517 10.3866 135.715 11.5227 135.715 12.8413V13.7136C135.715 14.3628 135.161 14.6874 134.034 14.6874C132.908 14.6874 132.354 14.3628 132.354 13.7136Z" fill="#2459FF"/>
<path d="M142.999 2.39224e-05V0.02031C144.402 0.02031 145.588 0.446324 146.557 1.29835C147.526 2.15038 148 3.26613 148 4.66589V13.7339C148 14.3831 147.446 14.7076 146.32 14.7076C145.193 14.7076 144.639 14.3831 144.639 13.7339V10.0418H141.358V13.7339C141.358 14.3831 140.804 14.7076 139.677 14.7076C138.551 14.7076 137.997 14.3831 137.997 13.7339V4.66589C137.997 3.26613 138.471 2.13009 139.44 1.27806C140.409 0.426037 141.595 2.39224e-05 142.999 2.39224e-05ZM141.358 4.84846L141.318 7.14082H144.6V4.86875C144.6 4.28045 144.461 3.81386 144.165 3.46899C143.868 3.12412 143.473 2.94155 142.979 2.94155C142.485 2.94155 142.089 3.10384 141.793 3.44871C141.496 3.79357 141.358 4.26016 141.358 4.84846Z" fill="#2459FF"/>
</svg>
