<svg xmlns="http://www.w3.org/2000/svg" width="60" height="60" viewBox="0 0 60 60" fill="none">
<mask id="mask0_2652_48198" style="mask-type:luminance" maskUnits="userSpaceOnUse" x="5" y="16" width="50" height="41">
<path fill-rule="evenodd" clip-rule="evenodd" d="M5.55566 16.3503H54.5203V56.8043H5.55566V16.3503Z" fill="white"/>
</mask>
<g mask="url(#mask0_2652_48198)">
<path fill-rule="evenodd" clip-rule="evenodd" d="M17.3446 20.1004C16.2421 20.1004 12.5571 20.5454 11.4996 26.2554L9.5696 41.2554C8.9421 45.4629 9.4271 48.5079 11.0146 50.3504C12.5821 52.1704 15.3871 53.0554 19.5871 53.0554H40.4571C43.0771 53.0554 46.6546 52.5329 48.8146 50.0379C50.5296 48.0604 51.1196 45.1154 50.5696 41.2829L48.6221 26.1529C47.7921 22.4254 45.6021 20.1004 42.7921 20.1004H17.3446ZM40.457 56.8053H19.587C14.2295 56.8053 10.497 55.4929 8.17449 52.7953C5.84199 50.0903 5.06199 46.0329 5.85699 40.7379L7.79699 25.6729C9.07199 18.7653 13.7345 16.3503 17.3445 16.3503H42.792C46.417 16.3503 50.8245 18.7579 52.312 25.5103L54.2845 40.7779C54.992 45.7053 54.107 49.6579 51.6495 52.4929C49.2045 55.3129 45.3345 56.8053 40.457 56.8053Z" fill="#FE539B"/>
</g>
<path fill-rule="evenodd" clip-rule="evenodd" d="M40.7999 19.5508C39.7649 19.5508 38.9249 18.7108 38.9249 17.6758C38.9249 12.7533 34.9199 8.75081 29.9999 8.75081H29.9623C27.6099 8.75081 25.3173 9.69831 23.6549 11.3508C21.9849 13.0133 21.0273 15.3208 21.0273 17.6758C21.0273 18.7108 20.1873 19.5508 19.1523 19.5508C18.1173 19.5508 17.2773 18.7108 17.2773 17.6758C17.2773 14.3283 18.6373 11.0558 21.0073 8.69331C23.3699 6.34581 26.6273 5.00081 29.9549 5.00081H30.0073C36.9899 5.00081 42.6749 10.6858 42.6749 17.6758C42.6749 18.7108 41.8349 19.5508 40.7999 19.5508Z" fill="#FE539B"/>
<path fill-rule="evenodd" clip-rule="evenodd" d="M37.4138 30.8104H37.2988C36.2638 30.8104 35.4238 29.9704 35.4238 28.9354C35.4238 27.9004 36.2638 27.0604 37.2988 27.0604C38.3338 27.0604 39.2313 27.9004 39.2313 28.9354C39.2313 29.9704 38.4488 30.8104 37.4138 30.8104Z" fill="#FE539B"/>
<path fill-rule="evenodd" clip-rule="evenodd" d="M22.8361 30.8104H22.7236C21.6886 30.8104 20.8486 29.9704 20.8486 28.9354C20.8486 27.9004 21.6886 27.0604 22.7236 27.0604C23.7586 27.0604 24.6561 27.9004 24.6561 28.9354C24.6561 29.9704 23.8711 30.8104 22.8361 30.8104Z" fill="#FE539B"/>
<path d="M38.7678 46.4488C38.3401 46.4488 37.9689 46.2072 37.7831 45.853C37.272 45.2217 36.7421 44.6446 36.1932 44.1219C35.5914 43.5432 34.9577 43.0484 34.2922 42.6375C33.6266 42.2324 32.9322 41.917 32.2088 41.6913C31.4855 41.4715 30.7273 41.3615 29.9345 41.3615C29.1417 41.3615 28.3894 41.4454 27.6776 41.6132C26.9658 41.7868 26.2858 42.0472 25.6376 42.3945C24.9895 42.7417 24.3674 43.1786 23.7713 43.7052C23.2122 44.2041 22.6661 44.786 22.1329 45.4509C21.9633 45.8477 21.5695 46.1258 21.1107 46.1258C20.4971 46.1258 19.9996 45.6283 19.9996 45.0146C19.9996 44.73 20.1066 44.4705 20.2826 44.2739C20.8541 43.4692 21.4817 42.7473 22.1654 42.108C22.8714 41.4483 23.6324 40.8899 24.4484 40.4327C25.2702 39.9813 26.1382 39.6369 27.0526 39.3997C27.9727 39.1624 28.9334 39.0438 29.9345 39.0438C30.9357 39.0438 31.9021 39.1885 32.8338 39.4778C33.7655 39.7671 34.6481 40.1694 35.4814 40.6844C36.3147 41.1994 37.0902 41.8129 37.8078 42.5247C38.4384 43.1503 39.0184 43.8242 39.5479 44.5465C39.638 44.6354 39.7131 44.7396 39.7688 44.8549L39.7783 44.8684L39.7759 44.87C39.842 45.0121 39.8789 45.1706 39.8789 45.3377C39.8789 45.9514 39.3814 46.4488 38.7678 46.4488Z" fill="#FE539B"/>
</svg>