<svg width="200" height="200" viewBox="0 0 200 200" fill="none" xmlns="http://www.w3.org/2000/svg">
<g id="Group 2190 3">
<g id="Mask group">
<mask id="mask0_1908_50579" style="mask-type:luminance" maskUnits="userSpaceOnUse" x="18" y="54" width="164" height="136">
<g id="Group">
<path id="Vector" fill-rule="evenodd" clip-rule="evenodd" d="M18.5186 54.501H181.734V189.348H18.5186V54.501Z" fill="white"/>
</g>
</mask>
<g mask="url(#mask0_1908_50579)">
<g id="Group_2">
<path id="Vector_2" fill-rule="evenodd" clip-rule="evenodd" d="M57.8145 67.0014C54.1396 67.0014 41.8563 68.4847 38.3311 87.518L31.8979 137.518C29.8062 151.543 31.4229 161.693 36.7145 167.835C41.9396 173.901 51.2896 176.851 65.2896 176.851H134.856C143.59 176.851 155.514 175.11 162.714 166.793C168.431 160.201 170.398 150.385 168.564 137.609L162.073 87.1762C159.306 74.7513 152.006 67.0014 142.64 67.0014H57.8145ZM134.856 189.351H65.2893C47.4307 189.351 34.9892 184.976 27.2475 175.984C19.4725 166.968 16.8725 153.443 19.5225 135.793L25.9892 85.5762C30.2392 62.551 45.7807 54.501 57.8141 54.501H142.639C154.723 54.501 169.414 62.5262 174.373 85.0343L180.947 135.926C183.306 152.351 180.356 165.526 172.164 174.976C164.014 184.376 151.114 189.351 134.856 189.351Z" fill="#C2D0FB"/>
</g>
</g>
</g>
<path id="Vector_3" fill-rule="evenodd" clip-rule="evenodd" d="M136.001 65.1693C132.551 65.1693 129.751 62.3693 129.751 58.9193C129.751 42.5112 116.401 29.1694 100.001 29.1694H99.8756C92.0341 29.1694 84.3923 32.3278 78.8508 37.836C73.2841 43.3778 70.0923 51.0693 70.0923 58.9193C70.0923 62.3693 67.2923 65.1693 63.8423 65.1693C60.3923 65.1693 57.5923 62.3693 57.5923 58.9193C57.5923 47.7612 62.1256 36.8528 70.0256 28.9778C77.9008 21.1528 88.7589 16.6694 99.8508 16.6694H100.026C123.301 16.6694 142.251 35.6194 142.251 58.9193C142.251 62.3693 139.451 65.1693 136.001 65.1693Z" fill="#C2D0FB"/>
<path id="Vector_4" fill-rule="evenodd" clip-rule="evenodd" d="M124.713 102.702H124.33C120.88 102.702 118.08 99.9017 118.08 96.4517C118.08 93.0017 120.88 90.2017 124.33 90.2017C127.78 90.2017 130.771 93.0017 130.771 96.4517C130.771 99.9017 128.163 102.702 124.713 102.702Z" fill="#C2D0FB"/>
<path id="Vector_5" fill-rule="evenodd" clip-rule="evenodd" d="M76.1199 102.702H75.7451C72.2951 102.702 69.4951 99.9017 69.4951 96.4517C69.4951 93.0017 72.2951 90.2017 75.7451 90.2017C79.1951 90.2017 82.1866 93.0017 82.1866 96.4517C82.1866 99.9017 79.5699 102.702 76.1199 102.702Z" fill="#C2D0FB"/>
<path id="Union" d="M129.227 154.83C127.802 154.83 126.564 154.024 125.945 152.843C124.241 150.739 122.475 148.816 120.645 147.073C118.639 145.144 116.527 143.495 114.308 142.125C112.09 140.775 109.775 139.724 107.364 138.971C104.953 138.238 102.426 137.872 99.7829 137.872C97.1402 137.872 94.6325 138.151 92.2598 138.711C89.8871 139.29 87.6206 140.158 85.46 141.315C83.2995 142.472 81.2259 143.929 79.239 145.684C77.3752 147.347 75.5548 149.287 73.7776 151.503C73.2123 152.826 71.8996 153.753 70.3703 153.753C68.3249 153.753 66.6666 152.094 66.6666 150.049C66.6666 149.1 67.0232 148.235 67.6097 147.58C69.5149 144.897 71.607 142.491 73.8859 140.36C76.2393 138.161 78.776 136.3 81.4959 134.776C84.2351 133.271 87.1287 132.123 90.1765 131.332C93.2436 130.541 96.4458 130.146 99.7829 130.146C103.12 130.146 106.342 130.628 109.447 131.593C112.553 132.557 115.495 133.898 118.273 135.615C121.05 137.332 123.635 139.376 126.027 141.749C128.129 143.834 130.063 146.081 131.827 148.488C132.128 148.785 132.378 149.132 132.564 149.516L132.595 149.562L132.588 149.567C132.808 150.041 132.931 150.569 132.931 151.126C132.931 153.171 131.273 154.83 129.227 154.83Z" fill="#C2D0FB"/>
</g>
</svg>
