<svg width="24" height="24" viewBox="0 0 24 24" fill="none" xmlns="http://www.w3.org/2000/svg">
<rect width="24" height="24" fill="white"/>
<path d="M18.7046 12.7631C18.6766 9.73111 21.2474 8.25602 21.365 8.18734C19.909 6.11487 17.6524 5.83171 16.8593 5.80913C14.964 5.61439 13.1255 6.91639 12.16 6.91639C11.1752 6.91639 9.68844 5.82794 8.08601 5.85993C6.02397 5.89097 4.0949 7.05656 3.0369 8.86656C0.853441 12.5571 2.48188 17.9805 4.57379 20.9637C5.62023 22.4246 6.84301 24.0559 8.4435 23.9985C10.0093 23.9355 10.5942 23.0239 12.4838 23.0239C14.356 23.0239 14.9052 23.9985 16.5375 23.9618C18.218 23.9355 19.276 22.4943 20.2858 21.0201C21.4951 19.3456 21.9807 17.6964 22 17.6118C21.9605 17.5986 18.7364 16.3973 18.7046 12.7631Z" fill="#2B2B2B"/>
<path d="M15.6212 3.84672C16.4633 2.81849 17.0395 1.41959 16.8796 0C15.6607 0.052682 14.1363 0.823156 13.2585 1.82882C12.4818 2.715 11.7881 4.16752 11.9673 5.53349C13.3365 5.63321 14.7424 4.85897 15.6212 3.84672Z" fill="#2B2B2B"/>
</svg>
