<svg width="147" height="18" viewBox="0 0 147 18" fill="none" xmlns="http://www.w3.org/2000/svg">
<rect x="40.4844" y="4.43851" width="3.43857" height="3.43857" rx="1.71928" transform="rotate(-90 40.4844 4.43851)" fill="white"/>
<rect x="40.4824" y="9.83694" width="3.43857" height="3.43857" rx="1.71928" transform="rotate(-90 40.4824 9.83694)" fill="white"/>
<rect x="40.4824" y="15.6429" width="3.43857" height="3.43857" rx="1.71928" transform="rotate(-90 40.4824 15.6429)" fill="white"/>
<path d="M6.24099 3.87067H3.31553V14.0123C3.31553 14.6364 2.76944 14.9484 1.65776 14.9484C0.546087 14.9484 0 14.6364 0 14.0123V2.03738C0 1.39378 0.273043 1.06222 0.838633 1.06222H8.71788C9.28347 1.06222 9.55652 1.39378 9.55652 2.03738V14.0123C9.55652 14.6364 9.01043 14.9484 7.89875 14.9484C6.78708 14.9484 6.24099 14.6364 6.24099 14.0123V3.87067Z" fill="white"/>
<path d="M17.0285 0.828186V0.847689C18.4132 0.847689 19.5834 1.25725 20.539 2.07638C21.4947 2.89551 21.9628 3.96818 21.9628 5.3139V14.0318C21.9628 14.6559 21.4167 14.9679 20.305 14.9679C19.1933 14.9679 18.6472 14.6559 18.6472 14.0318V10.4822H15.4097V14.0318C15.4097 14.6559 14.8636 14.9679 13.752 14.9679C12.6403 14.9679 12.0942 14.6559 12.0942 14.0318V5.3139C12.0942 3.96818 12.5623 2.87601 13.5179 2.05688C14.4736 1.23775 15.6438 0.828186 17.0285 0.828186ZM15.4097 5.48943L15.3707 7.69327H18.6082V5.50893C18.6082 4.94334 18.4717 4.49477 18.1792 4.16322C17.8866 3.83166 17.4966 3.65613 17.009 3.65613C16.5214 3.65613 16.1313 3.81216 15.8388 4.14371C15.5463 4.47526 15.4097 4.92384 15.4097 5.48943Z" fill="white"/>
<path d="M28.6083 3.87067H27.8087V7.42023H28.6083C29.681 7.42023 30.2271 6.83514 30.2271 5.64545C30.2271 4.45576 29.681 3.87067 28.6083 3.87067ZM24.4931 14.0123V2.07638C24.4931 1.43278 24.7662 1.10123 25.3318 1.10123H28.9594C30.3636 1.10123 31.4753 1.49129 32.2944 2.27141C33.1135 3.05154 33.5231 4.18272 33.5231 5.66495C33.5231 7.14719 33.1135 8.27837 32.2944 9.05849C31.4753 9.83862 30.3636 10.2287 28.9594 10.2287H27.8087V14.0123C27.8087 14.6364 27.2626 14.9484 26.1509 14.9484C25.0392 14.9484 24.4931 14.6364 24.4931 14.0123Z" fill="white"/>
<path d="M62.3899 11.984H62.7995C63.3651 11.984 63.6381 12.3155 63.6381 12.9591V16.2357C63.6381 16.8598 63.092 17.1718 61.9804 17.1718C60.8687 17.1718 60.3226 16.8598 60.3226 16.2357V14.7924H55.1933V16.2357C55.1933 16.8598 54.6472 17.1718 53.5355 17.1718C52.4239 17.1718 51.8778 16.8598 51.8778 16.2357V12.9591C51.8778 12.3155 52.1508 11.984 52.7164 11.984H53.048C53.4965 10.5212 53.7306 8.9805 53.7306 7.36175V5.06038C53.7306 3.75367 54.0816 2.75901 54.7642 2.07641C55.4468 1.3938 56.422 1.06225 57.6897 1.06225H61.5513C62.1169 1.06225 62.3899 1.3938 62.3899 2.0374V11.984ZM59.0939 11.984L59.0744 3.87069H58.2748C57.8457 3.87069 57.5337 4.00721 57.3386 4.26075C57.1436 4.51429 57.0461 4.94336 57.0461 5.52845V7.38125C57.0461 9.05852 56.8511 10.5993 56.461 11.984H59.0939Z" fill="white"/>
<path d="M65.2727 10.5603V5.33342C65.2727 3.98771 65.7408 2.89554 66.6965 2.07641C67.6521 1.25728 68.8223 0.847712 70.207 0.847712C71.5917 0.847712 72.7619 1.25728 73.7176 2.07641C74.6732 2.89554 75.1413 3.96821 75.1413 5.31392V10.5798C75.1413 11.9255 74.6732 12.9981 73.7176 13.8173C72.7619 14.6364 71.5917 15.046 70.207 15.046C68.8223 15.046 67.6521 14.6364 66.6965 13.8173C65.7408 12.9981 65.2727 11.906 65.2727 10.5603ZM71.8258 10.4237L71.7868 5.54796C71.7868 4.98237 71.6503 4.5338 71.3577 4.20224C71.0652 3.87069 70.6751 3.69516 70.1875 3.69516C69.6999 3.69516 69.3099 3.85119 69.0173 4.18274C68.7248 4.51429 68.5883 4.96287 68.5883 5.52845V10.4432C68.5883 11.0088 68.7443 11.4574 69.0368 11.7889C69.3294 12.1205 69.7194 12.2765 70.207 12.2765C70.6946 12.2765 71.0847 12.101 71.3772 11.7694C71.6698 11.4379 71.8258 10.9893 71.8258 10.4237Z" fill="white"/>
<path d="M77.4766 10.5603L77.4376 5.37243C77.4376 4.02672 77.9057 2.93454 78.8614 2.11541C79.817 1.29628 80.9872 0.886718 82.3719 0.886718C83.7566 0.886718 84.9268 1.29628 85.8825 2.11541C86.8381 2.93454 87.3062 4.00721 87.3062 5.35293V5.58696C87.3062 6.21106 86.7601 6.52311 85.6484 6.52311C84.5368 6.52311 83.9907 6.21106 83.9907 5.58696V5.52845C83.9907 4.96287 83.8542 4.51429 83.5616 4.18274C83.2691 3.85119 82.879 3.67566 82.3914 3.67566C81.9038 3.67566 81.5138 3.83169 81.2212 4.16324C80.9287 4.49479 80.7922 4.94336 80.7922 5.50895V10.4237C80.7922 10.9893 80.9482 11.4379 81.2407 11.7694C81.5333 12.101 81.9233 12.257 82.4109 12.257C82.8985 12.257 83.2886 12.0815 83.5811 11.7499C83.8737 11.4184 84.0297 10.9698 84.0297 10.4042V10.3457C84.0297 9.72162 84.5758 9.40957 85.6874 9.40957C86.7991 9.40957 87.3452 9.72162 87.3452 10.3457V10.5798C87.3452 11.9255 86.8771 12.9981 85.9215 13.8173C84.9658 14.6364 83.7956 15.046 82.4109 15.046C81.0262 15.046 79.856 14.6364 78.9004 13.8173C77.9447 12.9981 77.4766 11.906 77.4766 10.5603Z" fill="white"/>
<path d="M92.0142 14.0123V3.87069H89.4983C88.9717 3.87069 88.6987 3.40262 88.6987 2.46647C88.6987 1.53032 88.9717 1.06225 89.4983 1.06225H97.8456C98.3722 1.06225 98.6453 1.53032 98.6453 2.46647C98.6453 3.40262 98.3722 3.87069 97.8456 3.87069H95.3297V14.0123C95.3297 14.6364 94.7837 14.9484 93.672 14.9484C92.5603 14.9484 92.0142 14.6364 92.0142 14.0123Z" fill="white"/>
<path d="M105.175 0.828209V0.847712C106.56 0.847712 107.73 1.25728 108.686 2.07641C109.642 2.89554 110.11 3.96821 110.11 5.31392V14.0318C110.11 14.6559 109.564 14.968 108.452 14.968C107.34 14.968 106.794 14.6559 106.794 14.0318V10.4822H103.557V14.0318C103.557 14.6559 103.011 14.968 101.899 14.968C100.787 14.968 100.241 14.6559 100.241 14.0318V5.31392C100.241 3.96821 100.709 2.87603 101.665 2.0569C102.621 1.23777 103.791 0.828209 105.175 0.828209ZM103.557 5.48945L103.518 7.6933H106.755V5.50895C106.755 4.94336 106.619 4.49479 106.326 4.16324C106.034 3.83169 105.644 3.65616 105.156 3.65616C104.668 3.65616 104.278 3.81218 103.986 4.14374C103.693 4.47529 103.557 4.92386 103.557 5.48945Z" fill="white"/>
<path d="M115.956 6.28908L117.652 6.30858C118.023 6.30858 118.296 6.19156 118.491 5.95752C118.686 5.72349 118.784 5.43094 118.784 5.07988C118.784 4.74833 118.686 4.45578 118.491 4.22175C118.296 3.98771 118.023 3.87069 117.652 3.87069H115.956V6.28908ZM115.956 12.0035L117.73 11.984C118.159 11.984 118.491 11.8475 118.725 11.5744C118.959 11.3014 119.076 10.9503 119.076 10.5407C119.076 10.1312 118.959 9.79963 118.725 9.52659C118.491 9.25355 118.159 9.11702 117.73 9.11702H115.956V12.0035ZM117.964 14.7924H113.44C112.874 14.7924 112.601 14.4609 112.601 13.8173V2.0374C112.601 1.3938 112.874 1.06225 113.44 1.06225H117.925C119.135 1.06225 120.11 1.4133 120.851 2.11541C121.592 2.81752 121.963 3.69516 121.963 4.76783C121.963 6.03553 121.436 6.99119 120.402 7.63479C121.631 8.25889 122.255 9.33156 122.255 10.8333C122.255 11.906 121.885 12.8421 121.124 13.6222C120.363 14.4024 119.31 14.7924 117.964 14.7924Z" fill="white"/>
<path d="M130.576 14.0123V13.2127C130.576 11.4769 130.03 10.1507 128.938 9.21454L128.001 9.78013C127.748 9.93615 127.631 10.0922 127.631 10.2677V14.0123C127.631 14.6364 127.085 14.9484 125.973 14.9484C124.861 14.9484 124.315 14.6364 124.315 14.0123V1.84237C124.315 1.21827 124.861 0.906222 125.973 0.906222C127.085 0.906222 127.631 1.21827 127.631 1.84237V6.52311C127.728 6.40609 127.865 6.28908 128.06 6.17206C129.484 5.27491 130.186 4.08523 130.186 2.60299V1.84237C130.186 1.21827 130.732 0.906222 131.844 0.906222C132.955 0.906222 133.501 1.21827 133.501 1.84237V2.56398C133.501 4.5338 132.838 6.13305 131.531 7.36175C132.331 8.14187 132.916 8.9805 133.306 9.89715C133.696 10.8138 133.891 11.906 133.891 13.1737V14.0123C133.891 14.6364 133.345 14.9484 132.234 14.9484C131.122 14.9484 130.576 14.6364 130.576 14.0123Z" fill="white"/>
<path d="M141.077 0.828209V0.847712C142.462 0.847712 143.632 1.25728 144.588 2.07641C145.543 2.89554 146.011 3.96821 146.011 5.31392V14.0318C146.011 14.6559 145.465 14.968 144.354 14.968C143.242 14.968 142.696 14.6559 142.696 14.0318V10.4822H139.458V14.0318C139.458 14.6559 138.912 14.968 137.801 14.968C136.689 14.968 136.143 14.6559 136.143 14.0318V5.31392C136.143 3.96821 136.611 2.87603 137.567 2.0569C138.522 1.23777 139.692 0.828209 141.077 0.828209ZM139.458 5.48945L139.419 7.6933H142.657V5.50895C142.657 4.94336 142.52 4.49479 142.228 4.16324C141.935 3.83169 141.545 3.65616 141.058 3.65616C140.57 3.65616 140.18 3.81218 139.887 4.14374C139.595 4.47529 139.458 4.92386 139.458 5.48945Z" fill="white"/>
</svg>
