<svg width="261" height="30" viewBox="0 0 261 30" fill="none" xmlns="http://www.w3.org/2000/svg">
<rect x="76.5816" y="8.76657" width="5.9873" height="5.9873" rx="1.73006" transform="rotate(-90 76.5816 8.76657)" fill="white"/>
<rect x="72.8242" y="18.1664" width="5.9873" height="5.9873" rx="1.73006" transform="rotate(-90 72.8242 18.1664)" fill="white"/>
<rect x="69.063" y="28.2758" width="5.9873" height="5.9873" rx="1.73006" transform="rotate(-90 69.063 28.2758)" fill="white"/>
<path d="M14.9033 5.51096H9.60425L6.03626 23.8808C5.82431 25.0113 4.72918 25.5765 2.71556 25.5765C0.701943 25.5765 -0.181223 25.0113 0.0307364 23.8808L4.26993 2.19025C4.48189 1.02447 5.08245 0.423918 6.10692 0.423918H20.3789C21.4034 0.423918 21.7919 1.02447 21.58 2.19025L17.3408 23.8808C17.1288 25.0113 16.0337 25.5765 14.0201 25.5765C12.0065 25.5765 11.1233 25.0113 11.3353 23.8808L14.9033 5.51096Z" fill="white"/>
<path d="M35.5381 0L35.5735 0.0353262C38.0817 0.0353262 40.06 0.777187 41.473 2.26091C42.8861 3.74462 43.3807 5.68759 42.9214 8.12513L39.848 23.9161C39.636 25.0466 38.5409 25.6118 36.5273 25.6118C34.5137 25.6118 33.6305 25.0466 33.8425 23.9161L35.1142 17.4867H29.25L27.9782 23.9161C27.7663 25.0466 26.6712 25.6118 24.6575 25.6118C22.6439 25.6118 21.7608 25.0466 21.9727 23.9161L25.0461 8.12513C25.5054 5.68759 26.7418 3.7093 28.7554 2.22558C30.769 0.741858 33.03 0 35.5381 0ZM30.981 8.44307L30.2745 12.435H36.1387L36.8806 8.47839C37.0572 7.45392 36.9512 6.64141 36.5273 6.04086C36.1034 5.4403 35.4675 5.12236 34.5843 5.12236C33.7012 5.12236 32.924 5.40498 32.2528 6.00553C31.5816 6.60608 31.1576 7.41859 30.981 8.44307Z" fill="white"/>
<path d="M55.4179 5.51096H53.9695L52.7331 11.9404H54.1815C56.1245 11.9404 57.3256 10.8806 57.7495 8.72568C58.1381 6.57075 57.3609 5.51096 55.4179 5.51096ZM44.396 23.8808L48.5999 2.26091C48.8118 1.09512 49.4124 0.494573 50.4369 0.494573H57.0076C59.5511 0.494573 61.4235 1.2011 62.6599 2.61417C63.8963 4.02724 64.2496 6.07618 63.7197 8.76101C63.1898 11.4458 62.0593 13.4948 60.293 14.9078C58.5267 16.3209 56.3717 17.0274 53.8282 17.0274H51.744L50.4016 23.8808C50.1896 25.0113 49.0945 25.5765 47.0808 25.5765C45.0672 25.5765 44.1841 25.0113 44.396 23.8808Z" fill="white"/>
<path d="M103.868 20.9134L107.012 4.80442H104.927C103.196 4.80442 102.101 5.89955 101.642 8.0898L100.9 11.8698C100.3 15.0845 99.2752 18.0872 97.8621 20.9134H103.868ZM104.715 28.12L105.139 25.3292H94.6474L94.0821 28.1553C93.8702 29.1445 92.9164 29.639 91.2207 29.639C90.3375 29.639 89.7016 29.4977 89.3484 29.2151C88.9951 28.9325 88.8538 28.5793 88.9598 28.12L90.0196 22.5031C90.1962 21.4433 90.7614 20.9134 91.6799 20.9134H92.4218C93.9408 18.1932 95.036 15.1551 95.7072 11.8344L96.555 7.45392C96.9789 5.19302 97.9327 3.46201 99.4165 2.26091C100.9 1.0598 102.702 0.459247 104.857 0.459247H111.604C112.487 0.459247 112.841 0.989146 112.664 2.04894L108.99 20.9487H109.873C110.756 20.9487 111.11 21.4786 110.933 22.5384L109.838 28.1553C109.626 29.1445 108.672 29.639 106.976 29.639C106.093 29.639 105.457 29.4977 105.104 29.2151C104.751 28.9325 104.609 28.5793 104.715 28.12Z" fill="white"/>
<path d="M134.532 8.12513L132.695 17.5927C132.236 20.0302 131.035 22.0085 129.092 23.4922C127.149 24.9759 124.958 25.7178 122.521 25.7178C120.083 25.7178 118.176 24.9759 116.798 23.4922C115.42 22.0085 114.961 20.0302 115.42 17.5927L117.257 8.12513C117.716 5.68759 118.918 3.7093 120.861 2.22558C122.804 0.741858 124.994 0 127.431 0C129.869 0 131.776 0.741858 133.154 2.22558C134.532 3.7093 134.991 5.68759 134.532 8.12513ZM127.573 17.3454L129.339 8.44307C129.586 7.20663 129.445 6.21749 128.95 5.51096C128.456 4.80442 127.679 4.45116 126.619 4.45116C125.559 4.45116 124.641 4.80442 123.863 5.51096C123.086 6.21749 122.592 7.17131 122.344 8.40774L120.578 17.3807C120.331 18.6171 120.472 19.571 120.967 20.2775C121.461 20.984 122.238 21.3373 123.298 21.3373C124.358 21.3373 125.276 20.984 126.054 20.2775C126.831 19.571 127.325 18.5818 127.573 17.3454Z" fill="white"/>
<path d="M143.906 8.33709L142.175 17.4867C141.928 18.7231 142.069 19.6769 142.564 20.3835C143.058 21.09 143.835 21.4433 144.895 21.4433C145.955 21.4433 146.873 21.09 147.651 20.3835C148.428 19.6769 148.958 18.7231 149.205 17.522V17.416C149.417 16.4269 150.371 15.9323 152.066 15.9323C152.95 15.9323 153.585 16.0736 153.939 16.3562C154.292 16.6388 154.433 16.9921 154.327 17.4514L154.257 17.8046C153.797 20.2422 152.596 22.1851 150.653 23.6335C148.71 25.0819 146.52 25.8238 144.047 25.8238C141.61 25.8238 139.702 25.0819 138.324 23.5982C136.947 22.1145 136.487 20.1362 136.947 17.6986L138.784 8.23111C139.243 5.79357 140.444 3.81528 142.387 2.33156C144.33 0.847839 146.52 0.105979 148.958 0.105979C151.431 0.105979 153.373 0.847839 154.751 2.29623C156.129 3.74462 156.588 5.68759 156.129 8.12513L156.058 8.47839C155.846 9.46754 154.893 9.96211 153.162 9.96211C152.278 9.96211 151.642 9.82081 151.289 9.53819C150.936 9.25558 150.795 8.90231 150.901 8.44307V8.33709C151.148 7.13598 151.007 6.18216 150.512 5.47563C150.017 4.7691 149.24 4.41583 148.18 4.41583C147.121 4.41583 146.202 4.7691 145.425 5.47563C144.648 6.18216 144.153 7.13598 143.906 8.33709Z" fill="white"/>
<path d="M161.306 0.423918L176.249 0.459247C177.132 0.459247 177.415 1.2011 177.132 2.6495C176.849 4.09789 176.284 4.83975 175.401 4.83975H170.491L166.746 24.1281C166.534 25.1172 165.58 25.6118 163.885 25.6118C163.001 25.6118 162.365 25.4705 162.012 25.1879C161.659 24.9053 161.518 24.552 161.624 24.0928L165.368 4.80442H160.458C159.575 4.80442 159.292 4.06256 159.575 2.61417C159.857 1.16578 160.423 0.423918 161.306 0.423918Z" fill="white"/>
<path d="M189.634 17.0274L182.427 17.0981L181.05 24.1634C180.838 25.1526 179.884 25.6471 178.188 25.6471C177.305 25.6471 176.669 25.5058 176.316 25.2232C175.963 24.9406 175.821 24.5873 175.927 24.1281L179.036 8.16045C179.531 5.72292 180.767 3.74462 182.71 2.26091C184.653 0.777187 186.879 0.0353262 189.351 0.0353262C191.824 0.0353262 193.732 0.777187 195.11 2.26091C196.487 3.74462 196.947 5.72292 196.487 8.16045L193.379 24.1281C193.167 25.1172 192.213 25.6118 190.517 25.6118C189.634 25.6118 188.998 25.4705 188.645 25.1879C188.292 24.9053 188.15 24.552 188.256 24.0928L189.634 17.0274ZM183.275 12.7176H190.27L191.118 8.44307C191.365 7.20663 191.224 6.21749 190.729 5.51096C190.235 4.80442 189.457 4.45116 188.398 4.45116C187.338 4.45116 186.419 4.80442 185.642 5.54628C184.865 6.28814 184.37 7.24196 184.123 8.44307L183.275 12.7176Z" fill="white"/>
<path d="M207.61 25.2939L199.661 25.3292C198.707 25.3292 198.319 24.7993 198.495 23.7042L202.699 2.1196C202.946 1.02447 203.547 0.459247 204.501 0.459247H212.414C214.534 0.459247 216.123 1.09512 217.148 2.36688C218.172 3.63864 218.525 5.22834 218.172 7.13598C217.713 9.46754 216.406 11.1985 214.251 12.3643C216.335 13.5301 217.112 15.4731 216.582 18.2285C216.194 20.1715 215.205 21.8319 213.615 23.2096C212.025 24.5873 210.012 25.2939 207.61 25.2939ZM204.218 20.9487H207.821C208.74 20.9487 209.517 20.6661 210.153 20.0655C210.789 19.465 211.213 18.7231 211.389 17.84C211.566 16.9568 211.46 16.2149 211.072 15.6144C210.683 15.0138 210.012 14.7312 209.093 14.7312H205.419L204.218 20.9487ZM206.196 10.3507L209.552 10.2801C210.4 10.2801 211.107 10.0328 211.672 9.53819C212.237 9.04362 212.591 8.37241 212.767 7.5599C212.944 6.74739 212.838 6.07618 212.485 5.58161C212.131 5.08704 211.531 4.83975 210.683 4.83975H207.256L206.196 10.3507Z" fill="white"/>
<path d="M228.798 1.62503L226.785 11.3045C226.926 11.1279 227.244 10.8806 227.774 10.5627L230.317 9.00829C232.331 7.77186 233.567 5.86422 234.062 3.28538L234.38 1.76633C234.557 0.777186 235.51 0.282614 237.241 0.282614C238.937 0.282614 239.714 0.777186 239.538 1.76633L239.255 3.21472C238.513 6.95935 236.712 9.89146 233.815 11.9757C235.051 13.4948 235.864 15.0491 236.252 16.6742C236.641 18.2992 236.641 20.2422 236.217 22.5384L235.899 24.1987C235.687 25.1879 234.733 25.6825 233.038 25.6825C232.154 25.6825 231.518 25.5412 231.165 25.2585C230.812 24.9759 230.671 24.6227 230.777 24.1634L230.989 23.0683C231.377 21.2666 231.448 19.6769 231.165 18.3345C230.883 16.9921 230.282 15.791 229.328 14.6959L227.209 15.9323C226.679 16.2503 226.29 16.4975 226.078 16.6742C225.866 16.8508 225.76 17.0628 225.725 17.2747L224.383 24.1281C224.171 25.1172 223.217 25.6118 221.521 25.6118C220.638 25.6118 220.002 25.4705 219.649 25.1879C219.295 24.9053 219.154 24.552 219.26 24.0928L223.641 1.62503C223.817 0.63588 224.771 0.141307 226.502 0.141307C228.198 0.141307 228.975 0.63588 228.798 1.62503Z" fill="white"/>
<path d="M253.974 17.0274L246.767 17.0981L245.39 24.1634C245.178 25.1526 244.224 25.6471 242.528 25.6471C241.645 25.6471 241.009 25.5058 240.656 25.2232C240.303 24.9406 240.161 24.5873 240.267 24.1281L243.376 8.16045C243.871 5.72292 245.107 3.74462 247.05 2.26091C248.993 0.777187 251.219 0.0353262 253.691 0.0353262C256.164 0.0353262 258.072 0.777187 259.45 2.26091C260.827 3.74462 261.287 5.72292 260.827 8.16045L257.719 24.1281C257.507 25.1172 256.553 25.6118 254.857 25.6118C253.974 25.6118 253.338 25.4705 252.985 25.1879C252.632 24.9053 252.49 24.552 252.596 24.0928L253.974 17.0274ZM247.615 12.7176H254.61L255.458 8.44307C255.705 7.20663 255.564 6.21749 255.069 5.51096C254.575 4.80442 253.797 4.45116 252.738 4.45116C251.678 4.45116 250.759 4.80442 249.982 5.54628C249.205 6.28814 248.71 7.24196 248.463 8.44307L247.615 12.7176Z" fill="white"/>
</svg>
